<svg width="1720" height="360" viewBox="0 0 1720 360" fill="none" xmlns="http://www.w3.org/2000/svg">
<rect width="696.206" height="119.838" fill="white"/>
<path d="M111.674 25.8844L120.927 93.9219H106.503L100.879 52.6458L84.4592 93.9219H71.3053L54.8856 52.4644L49.3519 93.9219H34.928L44.1811 25.8844H58.8771L77.9276 73.6921L96.9781 25.8844H111.674ZM146.551 48.745H162.154C175.581 48.745 185.741 58.361 185.741 71.152C185.741 84.1245 175.581 93.9219 162.154 93.9219H131.855V25.8844H146.551V48.745ZM192.545 93.9219V25.8844H207.241V93.9219H192.545ZM146.551 80.4051H161.429C167.053 80.4051 171.045 76.6857 171.045 71.2427C171.045 65.7997 167.144 62.1711 161.429 62.1711H146.551V80.4051ZM328.727 72.1499H244.542V59.1774H328.727V72.1499ZM439.654 25.8844L448.907 93.9219H434.483L428.858 52.6458L412.439 93.9219H399.285L382.865 52.4644L377.331 93.9219H362.907L372.161 25.8844H386.857L405.907 73.6921L424.958 25.8844H439.654ZM459.835 93.9219V25.8844H474.531V73.2385L504.377 25.8844H520.796V93.9219H506.1V46.7492L476.345 93.9219H459.835ZM556.21 53.0087L576.803 25.8844H594.402L568.548 59.9031L594.402 93.9219H576.803L556.12 66.7976H549.588V93.9219H534.892V25.8844H549.588V53.0087H556.21ZM629.228 95.0105C609.452 95.0105 593.395 79.2258 593.395 59.9031C593.395 40.5805 609.452 24.7958 629.228 24.7958C645.013 24.7958 658.167 34.9561 662.793 49.1986L649.549 54.2787C647.099 45.2071 639.025 38.6755 629.228 38.6755C617.616 38.6755 608.182 48.2007 608.182 59.9031C608.182 71.6963 617.616 81.2215 629.228 81.2215C639.025 81.2215 647.099 74.5992 649.549 65.5276L662.793 70.6077C658.257 84.8502 645.013 95.0105 629.228 95.0105Z" fill="black"/>
<rect width="1719.73" height="119.838" transform="translate(0 119.836)" fill="white"/>
<path d="M83.9556 179.104C89.1264 182.37 92.3015 187.722 92.3015 194.072C92.3015 205.049 83.2298 213.758 71.7088 213.758H37.7808V145.72H69.9852C81.3248 145.72 90.4872 154.52 90.4872 165.406C90.4872 171.03 88.0378 175.838 83.9556 179.104ZM76.4261 166.313C76.4261 161.868 73.1603 158.511 68.8059 158.511H52.0233V174.115H68.8059C73.1603 174.115 76.4261 170.758 76.4261 166.313ZM52.0233 200.967H70.6202C74.9746 200.967 78.2404 197.61 78.2404 193.165C78.2404 188.72 74.9746 185.364 70.6202 185.364H52.0233V200.967ZM118.055 168.581H133.658C147.084 168.581 157.245 178.197 157.245 190.988C157.245 203.96 147.084 213.758 133.658 213.758H103.359V145.72H118.055V168.581ZM164.048 213.758V145.72H178.745V213.758H164.048ZM118.055 200.241H132.933C138.557 200.241 142.549 196.522 142.549 191.079C142.549 185.636 138.648 182.007 132.933 182.007H118.055V200.241ZM225.335 214.846C205.559 214.846 189.502 199.062 189.502 179.739C189.502 160.416 205.559 144.632 225.335 144.632C241.12 144.632 254.274 154.792 258.9 169.035L245.656 174.115C243.206 165.043 235.133 158.511 225.335 158.511C213.724 158.511 204.289 168.037 204.289 179.739C204.289 191.532 213.724 201.057 225.335 201.057C235.133 201.057 243.206 194.435 245.656 185.364L258.9 190.444C254.365 204.686 241.12 214.846 225.335 214.846ZM300.654 214.846C280.969 214.846 265.003 199.152 265.003 179.739C265.003 160.326 280.969 144.722 300.654 144.722C320.43 144.722 336.306 160.416 336.306 179.739C336.306 199.152 320.43 214.846 300.654 214.846ZM300.654 201.057C312.266 201.057 321.519 191.532 321.519 179.739C321.519 168.037 312.175 158.511 300.654 158.511C289.133 158.511 279.88 167.946 279.88 179.739C279.88 191.623 289.042 201.057 300.654 201.057ZM368.542 172.845L389.135 145.72H406.734L380.88 179.739L406.734 213.758H389.135L368.451 186.634H361.92V213.758H347.224V145.72H361.92V172.845H368.542ZM441.378 214.846C421.693 214.846 405.727 199.152 405.727 179.739C405.727 160.326 421.693 144.722 441.378 144.722C461.155 144.722 477.03 160.416 477.03 179.739C477.03 199.152 461.155 214.846 441.378 214.846ZM441.378 201.057C452.99 201.057 462.243 191.532 462.243 179.739C462.243 168.037 452.899 158.511 441.378 158.511C429.857 158.511 420.604 167.946 420.604 179.739C420.604 191.623 429.767 201.057 441.378 201.057ZM509.266 172.845L529.859 145.72H547.458L521.604 179.739L547.458 213.758H529.859L509.176 186.634H502.644V213.758H487.948V145.72H502.644V172.845H509.266ZM560.576 182.642L563.026 145.72H612.466V213.758H597.77V159.6H576.452L574.728 185.091C573.277 206.047 566.473 214.302 550.598 214.302H550.235L548.874 200.06H549.237C557.311 200.06 559.669 196.612 560.576 182.642ZM619.377 213.758L647.681 145.72H662.105L690.499 213.758H675.259L668.818 197.792H641.058L634.527 213.758H619.377ZM646.229 185.091H663.737L654.938 163.41L646.229 185.091ZM726.729 214.846C706.953 214.846 690.896 199.062 690.896 179.739C690.896 160.416 706.953 144.632 726.729 144.632C742.514 144.632 755.667 154.792 760.294 169.035L747.049 174.115C744.6 165.043 736.526 158.511 726.729 158.511C715.117 158.511 705.683 168.037 705.683 179.739C705.683 191.532 715.117 201.057 726.729 201.057C736.526 201.057 744.6 194.435 747.049 185.364L760.294 190.444C755.758 204.686 742.514 214.846 726.729 214.846ZM802.229 214.846C782.453 214.846 766.396 199.062 766.396 179.739C766.396 160.416 782.453 144.632 802.229 144.632C818.014 144.632 831.168 154.792 835.794 169.035L822.55 174.115C820.1 165.043 812.027 158.511 802.229 158.511C790.617 158.511 781.183 168.037 781.183 179.739C781.183 191.532 790.617 201.057 802.229 201.057C812.027 201.057 820.1 194.435 822.55 185.364L835.794 190.444C831.259 204.686 818.014 214.846 802.229 214.846ZM845.162 145.72H859.858V172.754H889.704V145.72H904.4V213.758H889.704V186.634H859.858V213.758H845.162V145.72ZM950.922 214.846C931.237 214.846 915.271 199.152 915.271 179.739C915.271 160.326 931.237 144.722 950.922 144.722C970.698 144.722 986.574 160.416 986.574 179.739C986.574 199.152 970.698 214.846 950.922 214.846ZM950.922 201.057C962.534 201.057 971.787 191.532 971.787 179.739C971.787 168.037 962.443 158.511 950.922 158.511C939.401 158.511 930.148 167.946 930.148 179.739C930.148 191.623 939.31 201.057 950.922 201.057ZM997.492 145.72H1042.67V159.6H1012.19V213.758H997.492V145.72ZM1080.66 214.846C1060.98 214.846 1045.01 199.152 1045.01 179.739C1045.01 160.326 1060.98 144.722 1080.66 144.722C1100.44 144.722 1116.31 160.416 1116.31 179.739C1116.31 199.152 1100.44 214.846 1080.66 214.846ZM1080.66 201.057C1092.27 201.057 1101.53 191.532 1101.53 179.739C1101.53 168.037 1092.18 158.511 1080.66 158.511C1069.14 158.511 1059.89 167.946 1059.89 179.739C1059.89 191.623 1069.05 201.057 1080.66 201.057ZM1167.02 213.758H1152.32V145.72H1210.29V213.758H1195.59V159.6H1167.02V213.758ZM1224.46 145.72H1255.21C1268.36 145.72 1278.34 155.427 1278.34 168.037C1278.34 180.556 1268.36 190.262 1255.21 190.262H1239.15V213.758H1224.46V145.72ZM1239.15 176.745H1254.48C1259.84 176.745 1263.65 173.117 1263.65 167.946C1263.65 162.775 1259.84 159.237 1254.48 159.237H1239.15V176.745ZM1320.03 214.846C1300.34 214.846 1284.38 199.152 1284.38 179.739C1284.38 160.326 1300.34 144.722 1320.03 144.722C1339.81 144.722 1355.68 160.416 1355.68 179.739C1355.68 199.152 1339.81 214.846 1320.03 214.846ZM1320.03 201.057C1331.64 201.057 1340.89 191.532 1340.89 179.739C1340.89 168.037 1331.55 158.511 1320.03 158.511C1308.51 158.511 1299.25 167.946 1299.25 179.739C1299.25 191.623 1308.42 201.057 1320.03 201.057ZM1422.9 145.72V199.878H1431.6V227.547H1417.36V213.758H1373.73V227.547H1359.49V199.878H1365.02C1368.38 196.068 1369.83 190.625 1370.64 178.832L1372.82 145.72H1422.9ZM1386.16 159.6L1384.8 178.923C1384.07 189.446 1382.98 195.342 1380.44 199.878H1408.2V159.6H1386.16ZM1457.35 195.705L1431.58 145.72H1448L1465.33 179.558L1482.02 145.72H1498.26L1464.52 213.758H1448.55L1457.35 195.705ZM1525.98 172.845L1546.58 145.72H1564.17L1538.32 179.739L1564.17 213.758H1546.58L1525.89 186.634H1519.36V213.758H1504.66V145.72H1519.36V172.845H1525.98ZM1589.62 213.758V159.6H1566.49V145.72H1627.36V159.6H1604.31V213.758H1589.62ZM1620.24 213.758L1648.54 145.72H1662.96L1691.36 213.758H1676.12L1669.68 197.792H1641.92L1635.39 213.758H1620.24ZM1647.09 185.091H1664.6L1655.8 163.41L1647.09 185.091Z" fill="black"/>
<rect width="911.206" height="119.838" transform="translate(0 239.68)" fill="white"/>
<path d="M37.9359 333.602V265.564H52.632V312.918L82.4778 265.564H98.8975V333.602H84.2014V286.429L54.4463 333.602H37.9359ZM196.598 265.564V319.722H205.307V347.39H191.064V333.602H147.429V347.39H133.187V319.722H138.721C142.077 315.912 143.529 310.469 144.345 298.676L146.522 265.564H196.598ZM159.858 279.444L158.497 298.766C157.771 309.29 156.683 315.186 154.142 319.722H181.902V279.444H159.858ZM215.801 265.564H246.554C259.708 265.564 269.686 275.271 269.686 287.88C269.686 300.399 259.708 310.106 246.554 310.106H230.497V333.602H215.801V265.564ZM230.497 296.589H245.828C251.18 296.589 254.99 292.961 254.99 287.79C254.99 282.619 251.18 279.081 245.828 279.081H230.497V296.589ZM296.363 315.549L270.599 265.564H287.019L304.346 299.401L321.038 265.564H337.276L303.529 333.602H287.563L296.363 315.549ZM402.01 292.598L421.242 265.564H438.66L414.166 299.583L438.66 333.602H421.061L401.919 306.477H395.388V333.602H380.692V306.477H374.251L355.019 333.602H337.42L361.913 299.583L337.42 265.564H354.837L374.16 292.598H380.692V265.564H395.388V292.598H402.01ZM446.554 265.564H494.452V279.081H461.25V293.051H489.1V306.114H461.25V320.085H494.452V333.602H446.554V265.564ZM512.184 302.486L514.633 265.564H564.074V333.602H549.378V279.444H528.059L526.336 304.935C524.884 325.891 518.081 334.146 502.205 334.146H501.842L500.482 319.903H500.844C508.918 319.903 511.277 316.456 512.184 302.486ZM635.666 264.476C655.079 264.476 670.954 280.26 670.954 299.583C670.954 318.905 655.17 334.69 635.666 334.69C618.702 334.69 604.731 322.716 601.556 306.477H592.938V333.602H578.242V265.564H592.938V292.598H601.556C604.731 276.45 618.702 264.476 635.666 264.476ZM635.756 320.901C647.096 320.901 656.258 311.376 656.258 299.583C656.258 287.971 647.005 278.264 635.756 278.264C624.417 278.264 615.254 287.79 615.254 299.583C615.254 311.467 624.326 320.901 635.756 320.901ZM696.522 292.507H714.121C726.186 292.507 735.348 301.306 735.348 313.009C735.348 324.711 726.186 333.602 714.121 333.602H681.825V265.564H731.175V279.081H696.522V292.507ZM696.522 320.901H712.306C717.114 320.901 720.561 317.545 720.561 312.737C720.561 307.929 717.205 304.572 712.306 304.572H696.522V320.901ZM745.898 333.602V265.564H760.594V312.918L790.439 265.564H806.859V333.602H792.163V286.429L762.408 333.602H745.898ZM842.183 265.564H873.298V333.602H858.602V309.743H849.803L833.383 333.602H816.147L833.746 308.201C825.219 305.026 819.413 296.952 819.413 287.608C819.413 275.361 829.21 265.564 842.183 265.564ZM843.271 296.68H858.602V278.99H843.271C837.828 278.99 834.109 282.8 834.109 287.79C834.109 292.87 837.828 296.68 843.271 296.68Z" fill="black"/>
</svg>
